PathFileType  4	(X/Y/Z) C:\Users\antoi\Documents\MyRepositories\mobilecap\ResultsAnalysis
DataRate	CameraRate	NumFrames	NumMarkers	Units	OrigDataRate	OrigDataStartFrame	OrigNumFrames
100.0	100.0	5	51	mm	100.0	18	142
Frame#	Time	r_knee			r_shank_antsup			r_ankle			r_calc			r_5meta			r_toe			L_knee			L_shank_antsup			L_ankle			L_calc			L_5meta			L_toe			r_sh2			r_sh3			r_sh4			L_sh2			L_sh3			r_thigh1			r_thigh2			r_thigh3			r_thigh4			r_thigh5			L_thigh1			L_thigh2			L_thigh3			L_thigh4			r.ASIS			r.PSIS			L.ASIS			L.PSIS			C7			R_Shoulder			L_Shoulder			R_Sternum			L_Sternum			R_humerus			R_elbow_med			R_elbow_lat			R_forearm			R_wrist_radius			R_wrist_ulna			L_humerus			L_elbow_med			L_elbow_lat			L_forearm			L_wrist_radius			L_wrist_ulna			R_HJC			L_HJC			R_HJC_reg			L_HJC_reg			
		X1	Y1	Z1	X2	Y2	Z2	X3	Y3	Z3	X4	Y4	Z4	X5	Y5	Z5	X6	Y6	Z6	X7	Y7	Z7	X8	Y8	Z8	X9	Y9	Z9	X10	Y10	Z10	X11	Y11	Z11	X12	Y12	Z12	X13	Y13	Z13	X14	Y14	Z14	X15	Y15	Z15	X16	Y16	Z16	X17	Y17	Z17	X18	Y18	Z18	X19	Y19	Z19	X20	Y20	Z20	X21	Y21	Z21	X22	Y22	Z22	X23	Y23	Z23	X24	Y24	Z24	X25	Y25	Z25	X26	Y26	Z26	X27	Y27	Z27	X28	Y28	Z28	X29	Y29	Z29	X30	Y30	Z30	X31	Y31	Z31	X32	Y32	Z32	X33	Y33	Z33	X34	Y34	Z34	X35	Y35	Z35	X36	Y36	Z36	X37	Y37	Z37	X38	Y38	Z38	X39	Y39	Z39	X40	Y40	Z40	X41	Y41	Z41	X42	Y42	Z42	X43	Y43	Z43	X44	Y44	Z44	X45	Y45	Z45	X46	Y46	Z46	X47	Y47	Z47	X48	Y48	Z48	X49	Y49	Z49	X50	Y50	Z50	X51	Y51	Z51	

18	0.17000000	230.26525	499.73689	-76.80219	274.37704	432.66915	-96.26356	220.66846	95.97088	-94.77350	150.55496	64.94823	-130.00592	324.14099	44.47895	-64.87122	371.14733	72.35519	-122.12853	63.89419	453.94813	-391.77723	22.24217	367.75907	-404.87312	-256.37560	226.96965	-394.13748	-313.77143	271.90766	-343.67592	-277.63358	102.14546	-427.76103	-227.73482	77.05443	-380.76015	259.47956	318.77414	-70.88400	198.64805	440.70380	-60.84034	185.35050	328.56436	-59.30030	-23.47504	443.82315	-396.99902	-122.11365	372.52878	-407.27586	200.60854	823.85026	-54.93782	231.58554	713.23037	-59.17228	184.90779	679.51591	-24.82750	96.18171	793.89416	-24.73040	126.28871	680.54517	-31.29666	96.72060	716.28169	-420.46145	108.38833	580.36526	-405.40806	-0.58191	710.60594	-359.72953	11.02991	570.65558	-360.17918	175.70090	967.44012	-108.94604	-21.81025	986.24758	-173.36837	163.51825	916.28148	-355.84318	-34.70835	973.70142	-272.90732	-16.98014	1392.63314	-258.46965	73.69727	1347.70741	-75.76055	73.97276	1357.41909	-433.87698	119.82900	1349.97352	-230.81596	125.56066	1352.17104	-273.78628	66.08889	1219.70247	-3.88328	-13.24500	1011.17562	-26.69468	-1.70488	1034.22345	42.04041	86.43158	922.97879	69.31084	142.82644	799.45809	84.54560	113.49690	788.89856	101.09478	118.13914	1248.85423	-490.76136	107.29010	1006.51976	-460.34371	142.70049	1038.29514	-524.03709	237.78184	974.67184	-495.40838	335.31925	850.63464	-478.58254	320.20477	839.30822	-508.85263	101.84448	882.25669	-111.63655	85.73478	846.73995	-314.38288	111.80135	877.26261	-124.68923	90.55709	856.59952	-288.64135	
19	0.18000000	236.80238	499.29540	-75.62459	280.36701	431.45710	-95.02316	220.94829	95.84888	-94.87527	150.55752	64.99508	-130.03116	324.14393	44.48917	-64.67182	371.21153	72.11591	-122.09318	88.54987	453.82029	-389.85502	46.66103	368.87808	-402.45053	-234.95466	234.25116	-391.65917	-291.06660	280.74428	-341.42758	-258.86443	109.75320	-424.94254	-209.86906	83.44479	-377.79403	263.21839	317.73263	-70.09646	204.62472	440.67772	-59.93711	189.26605	328.84838	-58.62471	2.70140	445.83289	-393.90020	-97.61032	376.97006	-404.17019	210.87504	823.78673	-52.42706	240.42524	712.76506	-56.88538	192.89076	679.40783	-23.25076	105.86307	794.72245	-23.56326	134.45770	681.19286	-30.26705	113.35111	716.30764	-418.62026	129.06629	580.70868	-403.60362	16.32968	707.51117	-357.93676	32.28982	568.33850	-357.88382	186.76683	968.33611	-106.57245	-10.69957	986.79603	-172.63166	175.33773	916.70331	-353.53524	-23.49529	973.58073	-272.27509	-4.69418	1393.47698	-255.01831	87.15591	1347.52325	-73.02153	85.42551	1358.81635	-431.08663	132.26403	1350.42769	-228.10671	137.74542	1352.78862	-271.08643	81.33966	1219.17291	-1.79860	3.52160	1009.99478	-24.26163	16.13161	1032.90997	44.24496	105.67166	922.25649	69.65013	163.39614	799.26198	83.46356	134.44770	788.32674	100.28866	128.60878	1249.94687	-488.39208	114.52234	1007.58843	-459.17755	150.39374	1039.23483	-522.68870	244.47468	973.83497	-494.47430	339.77254	848.01116	-478.70450	324.60095	837.21725	-509.07685	112.69229	883.08718	-109.73427	97.72965	846.95959	-312.46530	122.98408	878.68598	-121.95158	101.93401	856.94437	-285.87489	
20	0.19000000	243.05709	498.83749	-74.60291	286.02976	430.31128	-94.02859	221.21763	95.78564	-94.98875	150.56718	65.09792	-130.05937	324.15326	44.48927	-64.52037	371.25490	71.88870	-122.06484	112.86727	454.63961	-387.68779	71.23603	370.54919	-399.68705	-212.77831	241.02906	-388.86302	-268.56594	288.02949	-339.19531	-237.14112	116.55333	-421.74316	-189.05038	89.88479	-374.05360	266.84361	316.78791	-69.49492	210.37522	440.63055	-59.07492	193.13272	329.11857	-57.89815	28.68974	448.23012	-390.69938	-72.92038	381.35190	-401.11048	220.75947	823.66303	-50.23665	248.92736	712.27480	-54.87773	200.65072	679.30663	-21.88551	115.18981	795.60235	-22.43991	142.33267	681.81878	-29.40834	129.54156	716.93600	-416.76205	149.27804	581.79054	-401.76774	32.90688	705.14039	-356.07662	53.28061	566.94821	-355.14865	197.65376	969.22080	-104.37205	0.27407	987.43442	-171.88062	187.03178	917.30862	-351.49122	-12.37349	973.74054	-271.61704	7.38709	1394.46944	-251.76123	100.39543	1347.53871	-70.49646	96.62180	1360.25674	-428.51082	144.45585	1351.02851	-225.60778	149.74907	1353.52584	-268.58554	96.55804	1218.85942	0.04403	20.42687	1008.94795	-21.83952	34.25483	1031.78320	46.32087	125.11559	921.79891	69.75232	184.30801	799.39969	82.22150	155.82605	788.07350	99.26601	138.67608	1251.00670	-486.23392	121.55870	1008.71401	-457.83750	157.77724	1040.17173	-521.25755	250.86419	973.03147	-493.56745	343.90397	845.46557	-478.93445	328.62707	835.18435	-509.37386	123.41341	883.91483	-108.02899	109.50603	847.40142	-310.77163	133.98587	879.96713	-119.56279	113.19312	857.45105	-283.53311	
21	0.20000000	249.08264	498.38269	-73.75542	291.38723	429.23949	-93.28941	221.47544	95.79291	-95.11790	150.57943	65.24537	-130.09366	324.16690	44.48324	-64.41231	371.28346	71.68101	-122.04067	136.82608	456.35414	-385.29040	95.93147	372.69155	-396.63456	-189.77437	247.00805	-385.75474	-246.06367	293.79995	-336.84492	-213.01057	122.29976	-418.20159	-165.71715	95.93819	-369.74528	270.36987	315.94007	-69.12092	215.90833	440.57877	-58.27936	196.94944	329.38573	-57.15976	54.39230	450.91999	-387.50149	-48.11224	385.48253	-398.17410	230.33672	823.49195	-48.41569	257.17720	711.79705	-53.19532	208.29921	679.24796	-20.73647	124.20258	796.60449	-21.30843	150.04047	682.45909	-28.68641	145.29819	718.14356	-414.86367	169.02850	583.58256	-399.87441	49.15575	703.46649	-354.10974	73.96775	566.40369	-352.05326	208.40729	970.11026	-102.34919	11.15240	988.21460	-171.07160	198.62132	918.19775	-349.70344	-1.29884	974.27209	-270.89110	19.26867	1395.65908	-248.71418	113.38357	1347.80207	-68.17797	107.58297	1361.76751	-426.14982	156.39804	1351.82001	-223.31519	161.55965	1354.42576	-266.29065	111.70354	1218.80612	1.63675	37.45776	1008.08547	-19.50176	52.61633	1030.87131	48.22560	144.70332	921.65579	69.56708	205.48389	799.90130	80.76074	177.54716	788.18415	97.99738	148.32690	1252.06689	-484.30015	128.41645	1009.92231	-456.29077	164.83291	1041.12549	-519.73531	256.93666	972.28355	-492.69890	347.70123	843.02726	-479.26801	332.26879	833.22971	-509.73727	134.05485	884.76397	-106.52755	121.08531	848.15719	-309.31992	144.84216	881.12718	-117.55446	124.37517	858.20535	-281.64110	
22	0.21000000	254.86903	497.93577	-73.08351	296.42222	428.23435	-92.77175	221.71502	95.86948	-95.26237	150.59323	65.41945	-130.13800	324.18226	44.47635	-64.33760	371.31215	71.50022	-122.02199	160.44218	458.84400	-382.69439	120.71208	375.19245	-393.37747	-165.94077	251.92521	-382.36680	-223.31888	298.08817	-334.24171	-187.12772	126.83711	-414.38460	-140.41812	101.22977	-365.13097	273.74889	315.18029	-68.97784	221.17578	440.53121	-57.58541	200.63930	329.66261	-56.47077	79.73683	453.77192	-384.43767	-23.24745	389.16165	-395.40143	239.69340	823.28046	-46.95750	265.24485	711.33948	-51.84900	215.89080	679.23978	-19.79968	132.98334	797.73710	-20.18328	157.66366	683.13337	-28.08577	160.67492	719.86460	-412.92647	188.36470	586.01548	-397.89984	65.12590	702.42117	-352.03207	94.33525	566.56811	-348.74462	219.07488	971.02693	-100.49408	21.98065	989.18016	-170.18886	210.11789	919.46111	-348.14241	9.76381	975.23662	-270.08598	30.95624	1397.08720	-245.89198	126.09274	1348.36275	-66.05251	118.33732	1363.37399	-423.99376	168.10344	1352.83912	-221.21926	173.17636	1355.52791	-264.20430	126.71573	1219.06491	2.98931	54.60103	1007.46636	-17.33914	71.16447	1030.21141	49.91186	164.41414	921.88179	69.04915	226.82778	800.79203	78.94819	199.51046	788.71131	96.45072	157.57663	1253.17018	-482.58320	135.11643	1011.24836	-454.51514	171.55923	1042.12371	-518.11782	262.68208	971.61672	-491.87189	351.14317	840.72142	-479.69597	335.51140	831.37464	-510.15654	144.65549	885.66370	-105.23138	132.50020	849.29984	-308.11956	155.59481	882.21253	-115.92258	135.50849	859.28481	-280.17820	
